# xmcd
#
# Track frame offsets:
#	150
#	37687
#	74545
#	112535
#	138784
#	155008
#	187454
#	210674
#	247626
#
# Disc length: 3817 seconds
#
# Revision: 1
# Processed by: cddbd v1.5.2PL0 Copyright (c) Steve Scherf et al.
# Submitted via: audiograbber 1.83.01
#
DISCID=710ee709
DTITLE=Grateful Dead - 82-11-26 Jamaica World Music Festival, Montego Bay, Jama
DTITLE=ica
DYEAR=1900
DGENRE=
TTITLE0=Samson and Delilah
TTITLE1=Scarlet Begonias
TTITLE2=Fire On The Mountain
TTITLE3=Drums
TTITLE4=Space
TTITLE5=Throwing Stones
TTITLE6=Not Fade Away
TTITLE7=Black Peter
TTITLE8=Good Lovin'
EXTD=
EXTT0=
EXTT1=
EXTT2=
EXTT3=
EXTT4=
EXTT5=
EXTT6=
EXTT7=
EXTT8=
PLAYORDER=
